<?xml version="1.0" encoding="UTF-8"?>
<svg version="1.1" xmlns="http://www.w3.org/2000/svg" width="24" height="24">
<path d="M0 0 C3.02508145 1.73602105 5.41790069 3.83580137 7 7 C7.68128376 13.81283762 7.68128376 13.81283762 5.953125 16.82421875 C2.82207185 20.62752744 1.13366332 21.88663367 -3.75 22.375 C-7.10058068 22.35058775 -8.84894532 21.75601354 -11.4375 19.625 C-14.88331435 16.0951414 -15.39555836 14.0716348 -15.359375 9.10546875 C-14.72418186 5.38406547 -12.66020984 3.59687151 -10 1 C-6.77140153 -0.61429923 -3.49006347 -0.59570657 0 0 Z M-4 3 C-4 3.99 -4 4.98 -4 6 C-4.66 6 -5.32 6 -6 6 C-6.33 7.32 -6.66 8.64 -7 10 C-5.68 10.99 -4.36 11.98 -3 13 C-3.33 14.98 -3.66 16.96 -4 19 C-0.70924004 18.62095792 -0.70924004 18.62095792 2 17 C2.04063832 15.33382885 2.042721 13.66611905 2 12 C0.68 12 -0.64 12 -2 12 C-1.67 10.88625 -1.34 9.7725 -1 8.625 C0.088643 5.30540283 0.088643 5.30540283 0 3 C-1.32 3 -2.64 3 -4 3 Z M-12 12 C-11.72382467 13.94074861 -11.72382467 13.94074861 -11 16 C-9.515 16.99 -9.515 16.99 -8 18 C-8.66 16.02 -9.32 14.04 -10 12 C-10.66 12 -11.32 12 -12 12 Z " fill="#FFFFFF" transform="translate(16,1)"/>
</svg>
