<?xml version="1.0" encoding="UTF-8"?>
<!DOCTYPE svg PUBLIC "-//W3C//DTD SVG 1.1//EN" "http://www.w3.org/Graphics/SVG/1.1/DTD/svg11.dtd">
<svg xmlns="http://www.w3.org/2000/svg" version="1.1" width="24px" height="24px" style="shape-rendering:geometricPrecision; text-rendering:geometricPrecision; image-rendering:optimizeQuality; fill-rule:evenodd; clip-rule:evenodd" xmlns:xlink="http://www.w3.org/1999/xlink">
<g><path style="opacity:0.451" fill="#000000" d="M 6.5,-0.5 C 9.83333,-0.5 13.1667,-0.5 16.5,-0.5C 19.1667,1.5 21.5,3.83333 23.5,6.5C 23.5,9.83333 23.5,13.1667 23.5,16.5C 21.5,19.1667 19.1667,21.5 16.5,23.5C 13.1667,23.5 9.83333,23.5 6.5,23.5C 3.83333,21.5 1.5,19.1667 -0.5,16.5C -0.5,13.1667 -0.5,9.83333 -0.5,6.5C 1.5,3.83333 3.83333,1.5 6.5,-0.5 Z M 9.5,1.5 C 10.5983,2.60093 10.765,3.93426 10,5.5C 9.24956,4.87424 8.41623,4.37424 7.5,4C 8.38053,3.2917 9.0472,2.45837 9.5,1.5 Z M 12.5,1.5 C 15.8099,2.87115 15.9766,4.20448 13,5.5C 12.51,4.20677 12.3433,2.87344 12.5,1.5 Z M 2.5,5.5 C 4.25605,6.55213 4.92271,8.21879 4.5,10.5C 0.246815,10.8801 -0.419851,9.21342 2.5,5.5 Z M 18.5,5.5 C 19.4959,5.41423 20.3292,5.74756 21,6.5C 21.3095,7.76591 21.8095,8.93257 22.5,10C 21.2068,10.49 19.8734,10.6567 18.5,10.5C 18.5,8.83333 18.5,7.16667 18.5,5.5 Z M 6.5,6.5 C 7.83333,6.5 9.16667,6.5 10.5,6.5C 10.5,7.83333 10.5,9.16667 10.5,10.5C 8.80081,10.6602 7.13414,10.4935 5.5,10C 6.33663,8.98873 6.66997,7.82207 6.5,6.5 Z M 12.5,6.5 C 13.8333,6.5 15.1667,6.5 16.5,6.5C 16.33,7.82207 16.6634,8.98873 17.5,10C 15.8659,10.4935 14.1992,10.6602 12.5,10.5C 12.5,9.16667 12.5,7.83333 12.5,6.5 Z M 0.5,13.5 C 1.56764,12.5655 2.90097,12.2322 4.5,12.5C 4.35031,18.7395 3.01697,19.0728 0.5,13.5 Z M 6.5,12.5 C 7.83333,12.5 9.16667,12.5 10.5,12.5C 10.5,13.8333 10.5,15.1667 10.5,16.5C 9.16667,16.5 7.83333,16.5 6.5,16.5C 6.5,15.1667 6.5,13.8333 6.5,12.5 Z M 12.5,12.5 C 13.8333,12.5 15.1667,12.5 16.5,12.5C 16.5,13.8333 16.5,15.1667 16.5,16.5C 15.1667,16.5 13.8333,16.5 12.5,16.5C 12.5,15.1667 12.5,13.8333 12.5,12.5 Z M 18.5,12.5 C 19.8734,12.3433 21.2068,12.51 22.5,13C 20.1525,19.0199 18.8192,18.8532 18.5,12.5 Z M 9.5,17.5 C 11.0334,21.6134 10.3667,22.1134 7.5,19C 8.4158,18.7216 9.08247,18.2216 9.5,17.5 Z M 12.5,17.5 C 16.2939,18.2393 16.4605,19.5727 13,21.5C 12.51,20.2068 12.3433,18.8734 12.5,17.5 Z"/></g>
</svg>
