<?xml version="1.0" encoding="UTF-8"?>
<svg version="1.1" xmlns="http://www.w3.org/2000/svg" width="24" height="24">
<path d="M0 0 C0.99 0 1.98 0 3 0 C3 0.66 3 1.32 3 2 C3.69480469 1.83628906 4.38960938 1.67257813 5.10546875 1.50390625 C8.2352816 0.95904004 11.13798083 0.90261517 14.3125 0.9375 C16.189375 0.958125 18.06625 0.97875 20 1 C20 5.29 20 9.58 20 14 C11.585 14.495 11.585 14.495 3 15 C3 17.97 3 20.94 3 24 C2.01 24 1.02 24 0 24 C0 16.08 0 8.16 0 0 Z M13 2 C13.33 2.99 13.66 3.98 14 5 C14.33 4.01 14.66 3.02 15 2 C14.34 2 13.68 2 13 2 Z M6 3 C6.33 3.99 6.66 4.98 7 6 C7.33 5.01 7.66 4.02 8 3 C7.34 3 6.68 3 6 3 Z M10 6 C9.67 6.99 9.34 7.98 9 9 C9.66 9 10.32 9 11 9 C10.67 8.01 10.34 7.02 10 6 Z M16 6 C16 6.66 16 7.32 16 8 C16.66 8 17.32 8 18 8 C18 7.34 18 6.68 18 6 C17.34 6 16.68 6 16 6 Z M3 7 C4 9 4 9 4 9 Z M13 10 C13 10.66 13 11.32 13 12 C13.66 12 14.32 12 15 12 C15 11.34 15 10.68 15 10 C14.34 10 13.68 10 13 10 Z M6 11 C6 11.66 6 12.32 6 13 C6.66 13 7.32 13 8 13 C8 12.34 8 11.68 8 11 C7.34 11 6.68 11 6 11 Z " fill="#FFFFFF" transform="translate(2,0)"/>
</svg>
