<?xml version="1.0" encoding="UTF-8"?>
<!DOCTYPE svg PUBLIC "-//W3C//DTD SVG 1.1//EN" "http://www.w3.org/Graphics/SVG/1.1/DTD/svg11.dtd">
<svg xmlns="http://www.w3.org/2000/svg" version="1.1" width="24px" height="24px" style="shape-rendering:geometricPrecision; text-rendering:geometricPrecision; image-rendering:optimizeQuality; fill-rule:evenodd; clip-rule:evenodd" xmlns:xlink="http://www.w3.org/1999/xlink">
<g><path style="opacity:0.544" fill="#fefffe" d="M 12.5,-0.5 C 14.1667,-0.5 15.8333,-0.5 17.5,-0.5C 18.287,1.10422 19.6203,1.77089 21.5,1.5C 21.2291,3.3797 21.8958,4.71304 23.5,5.5C 23.5,7.16667 23.5,8.83333 23.5,10.5C 21.745,12.7612 20.5784,15.4278 20,18.5C 18.2703,20.4019 16.437,22.0686 14.5,23.5C 11.5,23.5 8.5,23.5 5.5,23.5C 3.16667,21.8333 1.16667,19.8333 -0.5,17.5C -0.5,14.5 -0.5,11.5 -0.5,8.5C 0.93142,6.56303 2.59809,4.72969 4.5,3C 7.66634,2.67794 10.333,1.51127 12.5,-0.5 Z M 14.5,1.5 C 15.404,2.20895 15.7373,3.20895 15.5,4.5C 16.5,4.5 17.5,4.5 18.5,4.5C 18.5,5.5 18.5,6.5 18.5,7.5C 22.5,7.83333 22.5,8.16667 18.5,8.5C 18.5,9.5 18.5,10.5 18.5,11.5C 17.5,11.5 16.5,11.5 15.5,11.5C 15.6495,12.552 15.4828,13.552 15,14.5C 14.6824,12.9391 13.8491,11.7724 12.5,11C 15.1667,9 15.1667,7 12.5,5C 13.9733,4.29044 14.6399,3.12377 14.5,1.5 Z M 6.5,4.5 C 8.04814,4.82124 8.71481,5.82124 8.5,7.5C 9.55198,7.35055 10.552,7.51722 11.5,8C 9.93908,8.31762 8.77241,9.15095 8,10.5C 6.50239,8.38622 4.66905,7.88622 2.5,9C 3.69882,7.30573 5.03215,5.80573 6.5,4.5 Z M 4.5,11.5 C 5.18586,12.8484 6.18586,14.015 7.5,15C 6.75112,16.7337 6.25112,18.567 6,20.5C 4.12173,18.9571 2.62173,17.1238 1.5,15C 2.44802,14.5172 3.44802,14.3505 4.5,14.5C 4.5,13.5 4.5,12.5 4.5,11.5 Z M 17.5,16.5 C 16.4449,18.9566 14.6115,20.6232 12,21.5C 11.5172,20.552 11.3505,19.552 11.5,18.5C 10.448,18.6495 9.44802,18.4828 8.5,18C 10.0609,17.6824 11.2276,16.8491 12,15.5C 13.6995,16.4061 15.5328,16.7394 17.5,16.5 Z"/></g>
</svg>
