<?xml version="1.0" encoding="UTF-8"?>
<svg version="1.1" xmlns="http://www.w3.org/2000/svg" width="24" height="24">
<path d="M0 0 C2.875 0.6875 2.875 0.6875 3.875 1.6875 C4.11029412 7.21691176 4.11029412 7.21691176 2.875 9.6875 C3.535 10.079375 4.195 10.47125 4.875 10.875 C5.535 11.473125 6.195 12.07125 6.875 12.6875 C6.875 14.3375 6.875 15.9875 6.875 17.6875 C1.595 17.6875 -3.685 17.6875 -9.125 17.6875 C-9.125 12.6875 -9.125 12.6875 -7.125 10.375 C-6.135 9.5396875 -6.135 9.5396875 -5.125 8.6875 C-5.455 8.3575 -5.785 8.0275 -6.125 7.6875 C-6.375 4.75 -6.375 4.75 -6.125 1.6875 C-3.125 -0.3125 -3.125 -0.3125 0 0 Z M-2.125 12.6875 C-2.125 13.3475 -2.125 14.0075 -2.125 14.6875 C-1.465 14.6875 -0.805 14.6875 -0.125 14.6875 C-0.125 14.0275 -0.125 13.3675 -0.125 12.6875 C-0.785 12.6875 -1.445 12.6875 -2.125 12.6875 Z " fill="#FFFFFF" transform="translate(13.125,3.3125)"/>
</svg>
