<?xml version="1.0" encoding="UTF-8"?>
<svg version="1.1" xmlns="http://www.w3.org/2000/svg" width="24" height="24">
<path d="M0 0 C2.91289646 0.08473881 3.77703881 0.15009119 6.125 2 C7.37193518 5.15890245 6.90949399 7.12818971 6.0625 10.375 C5.7325 11.035 5.4025 11.695 5.0625 12.375 C5.866875 12.7875 6.67125 13.2 7.5 13.625 C10.0625 15.375 10.0625 15.375 10.875 17.5625 C10.936875 18.160625 10.99875 18.75875 11.0625 19.375 C8.34416969 22.23640033 6.555522 24.10830389 2.61328125 24.8125 C-2.21068974 24.9278715 -6.25636766 24.81863993 -9.9375 21.375 C-10.9375 18.875 -10.9375 18.875 -10.9375 16.375 C-9.22681523 14.06557557 -7.3626357 12.99175713 -4.9375 11.375 C-5.5975 10.385 -6.2575 9.395 -6.9375 8.375 C-6.47715638 2.73579065 -6.00084338 0.57150889 0 0 Z M-1.9375 13.375 C2.0625 14.375 2.0625 14.375 2.0625 14.375 Z " fill="#FFFFFF" transform="translate(11.9375,-0.375)"/>
</svg>
